<svg width="22" height="19" viewBox="0 0 22 19" fill="none" xmlns="http://www.w3.org/2000/svg">
<path d="M16.5344 16.3824H21.5638V18.5H14.4167L16.5344 16.3824ZM3.2991 18.5L1.0491 16.25C0.643216 15.8441 0.435863 15.3412 0.427039 14.7412C0.418216 14.1412 0.616745 13.6294 1.02263 13.2059L12.6697 1.13529C13.0756 0.711765 13.5741 0.5 14.1653 0.5C14.7565 0.5 15.255 0.702941 15.6609 1.10882L20.9285 6.37647C21.3344 6.78235 21.5373 7.28529 21.5373 7.88529C21.5373 8.48529 21.3344 8.98824 20.9285 9.39412L12.0344 18.5H3.2991ZM11.1344 16.3824L19.4462 7.85882L14.205 2.61765L2.50498 14.6882L4.1991 16.3824H11.1344Z" fill="#CACACA"/>
</svg>
